<svg width="103" height="102" viewBox="0 0 103 102" fill="none" xmlns="http://www.w3.org/2000/svg">
<path d="M39.5223 2.53416C41.5366 2.02473 43.5797 1.64088 45.6382 1.38518C47.6967 1.12894 49.7715 1 51.8493 1C65.6978 1 78.2357 6.59664 87.3107 15.6449C96.3865 24.6927 102 37.1934 102 51.0002C102 64.8071 96.3865 77.3072 87.3107 86.355C78.2356 95.4033 65.6978 101 51.8493 101C39.0638 101 27.3012 96.2036 18.3848 88.2394C9.46895 80.2753 3.3993 69.1434 2 56.4727L2.48499 56.4194C3.87084 68.9679 9.88074 79.9917 18.7092 87.8777C27.538 95.7637 39.186 100.513 51.8493 100.513C65.5632 100.513 77.9787 94.9706 86.9653 86.0106C95.9525 77.051 101.511 64.6727 101.511 51.0002C101.511 37.3272 95.9525 24.949 86.9653 15.9893C77.9787 7.02931 65.5633 1.48737 51.8493 1.48737C49.7899 1.48737 47.7347 1.61499 45.697 1.86818C43.6587 2.12151 41.6352 2.50199 39.6403 3.00614L39.5223 2.53416Z" fill="#ECF0F1" stroke="#F4F4F4" stroke-width="2"/>
<path d="M33.0615 88.0231C26.0602 84.4917 20.3524 79.1468 16.3951 72.7299C12.4384 66.313 10.2316 58.8223 10.2316 51.0002C10.2316 39.5426 14.8899 29.1688 22.421 21.6604C29.952 14.152 40.3573 9.5075 51.8493 9.5075C63.3415 9.5075 73.7462 14.152 81.2773 21.6604C88.8083 29.1688 93.4667 39.5421 93.4667 51.0002C93.4667 52.909 93.3339 54.8174 93.0701 56.7095C92.807 58.5998 92.4128 60.4716 91.8903 62.3101L91.4206 62.1785C91.9378 60.3593 92.3273 58.509 92.5875 56.6428C92.8469 54.7781 92.9783 52.8928 92.9783 51.0001C92.9783 39.6763 88.3743 29.4248 80.9318 22.0047C73.4892 14.5845 63.2069 9.99447 51.8493 9.99447C40.4914 9.99447 30.209 14.5845 22.7664 22.0047C15.324 29.4247 10.7199 39.6763 10.7199 51.0001C10.7199 58.7305 12.9011 66.1335 16.8118 72.4751C20.7224 78.8177 26.3629 84.0996 33.2807 87.5889L33.0615 88.0231Z" fill="#ECF0F1" stroke="#F4F4F4" stroke-width="2"/>
<path d="M84.9434 46.9459C85.0257 47.6142 85.0877 48.2897 85.1296 48.97C85.171 49.6512 85.1921 50.3285 85.1921 51.0002C85.1921 60.18 81.4601 68.4904 75.4264 74.5064C69.3924 80.5217 61.0568 84.2427 51.8493 84.2427C42.6418 84.2427 34.3058 80.5218 28.2718 74.5064C22.2387 68.4904 18.506 60.18 18.506 51.0002C18.506 44.0291 20.6887 37.4268 24.5127 31.9675C28.3367 26.5081 33.802 22.1914 40.3663 19.7907L40.5349 20.2475C34.0648 22.614 28.6784 26.8668 24.9116 32.2452C21.145 37.6226 18.9946 44.1283 18.9946 51.0001C18.9946 60.045 22.6723 68.2343 28.6174 74.1619C34.5629 80.0891 42.7767 83.7557 51.8494 83.7557C60.9218 83.7557 69.1356 80.0891 75.0811 74.1619C81.0261 68.2343 84.7038 60.045 84.7038 51.0001C84.7038 50.3265 84.6832 49.6587 84.6427 48.9986C84.6023 48.3376 84.5407 47.6716 84.4585 47.0048L84.9434 46.9459Z" fill="#ECF0F1" stroke="#F4F4F4" stroke-width="2"/>
<path fill-rule="evenodd" clip-rule="evenodd" d="M73.2983 50.9599C73.2983 54.912 72.1257 58.0711 69.7794 60.4366C67.5952 62.6415 65.0199 63.7436 62.0534 63.7436H54.0446V38.2161H62.0534C65.478 38.2161 68.2425 39.5066 70.3457 42.0877C72.3143 44.4806 73.2983 47.4377 73.2983 50.9599ZM74.9569 50.9599C74.9569 47.0078 73.8108 43.6741 71.5183 40.9583C69.0917 38.055 65.9365 36.6033 62.0534 36.6033H52.4263V65.3973H62.0534C65.9635 65.3973 69.1321 63.9455 71.5592 61.0417C73.8242 58.2994 74.9569 54.9388 74.9569 50.9599ZM48.1795 36.6033H46.4404L38.8356 60.3968L31.2715 36.6033H29.5725L38.8356 65.8813L48.1795 36.6033Z" fill="#ECF0F1"/>
</svg>
