<?xml version="1.0" encoding="utf-8"?>
<!-- Generator: Adobe Illustrator 24.0.0, SVG Export Plug-In . SVG Version: 6.00 Build 0)  -->
<svg version="1.1" id="Layer_1" xmlns="http://www.w3.org/2000/svg" xmlns:xlink="http://www.w3.org/1999/xlink" x="0px" y="0px"
	 viewBox="0 0 5657 4000" enable-background="new 0 0 5657 4000" xml:space="preserve">
<rect display="none" fill-rule="evenodd" clip-rule="evenodd" width="5657" height="4000"/>
<path fill="#ECF0F1" d="M2640.179,946.961c30.401-7.712,61.237-13.523,92.306-17.394c31.067-3.879,62.382-5.831,93.741-5.831
	c209.01,0,398.239,84.725,535.205,221.703c136.977,136.97,221.699,326.212,221.699,535.227c0,209.016-84.723,398.249-221.699,535.22
	c-136.967,136.978-326.195,221.703-535.205,221.703c-192.967,0-370.495-72.611-505.066-193.177
	c-134.563-120.565-226.17-289.085-247.289-480.901l7.32-0.807c20.916,189.966,111.621,356.851,244.865,476.233
	c133.249,119.382,309.048,191.273,500.17,191.273c206.978,0,394.36-83.897,529.992-219.538
	c135.639-135.635,219.534-323.025,219.534-530.006c0-206.989-83.895-394.378-219.534-530.014
	c-135.632-135.641-323.013-219.538-529.992-219.538c-31.082,0-62.1,1.932-92.854,5.765c-30.764,3.835-61.303,9.595-91.412,17.227
	L2640.179,946.961z"/>
<path fill="#ECF0F1" d="M2542.67,2241.137c-105.667-53.46-191.814-134.373-251.539-231.516
	c-59.717-97.143-93.023-210.54-93.023-328.956c0-173.451,70.306-330.495,183.969-444.161
	c113.663-113.666,270.705-183.977,444.15-183.977c173.447,0,330.481,70.311,444.144,183.977
	c113.663,113.666,183.969,270.702,183.969,444.161c0,28.897-2.003,57.787-5.985,86.431c-3.971,28.616-9.92,56.952-17.806,84.784
	l-7.089-1.991c7.806-27.54,13.684-55.551,17.611-83.803c3.915-28.229,5.898-56.77,5.898-85.422
	c0-171.425-69.486-326.619-181.812-438.948c-112.328-112.331-267.515-181.817-438.931-181.817
	c-171.42,0-326.608,69.486-438.936,181.817c-112.325,112.328-181.812,267.523-181.812,438.948
	c0,117.027,32.919,229.097,91.942,325.1c59.021,96.018,144.15,175.978,248.559,228.8L2542.67,2241.137z"/>
<path fill="#ECF0F1" d="M3325.702,1619.289c1.242,10.118,2.177,20.343,2.81,30.642c0.625,10.312,0.943,20.566,0.943,30.734
	c0,138.969-56.325,264.776-147.389,355.85c-91.069,91.063-216.875,147.393-355.84,147.393s-264.777-56.329-355.845-147.393
	c-91.056-91.073-147.391-216.881-147.391-355.85c0-105.531,32.942-205.48,90.656-288.127
	c57.714-82.647,140.2-147.995,239.272-184.338l2.544,6.915c-97.65,35.825-178.945,100.207-235.795,181.627
	c-56.848,81.407-89.303,179.893-89.303,283.922c0,136.927,55.506,260.9,145.232,350.636
	c89.734,89.729,213.701,145.236,350.632,145.236c136.926,0,260.893-55.507,350.626-145.236
	c89.726-89.736,145.232-213.709,145.232-350.636c0-10.197-0.312-20.307-0.922-30.299c-0.61-10.007-1.54-20.089-2.78-30.184
	L3325.702,1619.289z"/>
<path fill-rule="evenodd" clip-rule="evenodd" fill="#ECF0F1" d="M3149.947,1680.056c0,59.829-17.698,107.653-53.11,143.463
	c-32.965,33.379-71.833,50.063-116.604,50.063h-120.875v-386.449h120.875c51.686,0,93.408,19.536,125.151,58.61
	C3135.095,1581.968,3149.947,1626.734,3149.947,1680.056 M3174.98,1680.056c0-59.829-17.299-110.297-51.898-151.41
	c-36.624-43.952-84.243-65.929-142.849-65.929h-145.298v435.899h145.298c59.013,0,106.835-21.977,143.467-65.937
	C3157.884,1791.165,3174.98,1740.29,3174.98,1680.056z M2770.839,1462.717h-26.248l-114.775,360.2l-114.162-360.2h-25.643
	l139.805,443.226L2770.839,1462.717z"/>
<text transform="matrix(1 0 0 1 2271.0908 2681.7275)" fill="#FFFFFF" font-family="'Poppins-Medium'" font-size="230px">VillaDonq </text>
</svg>
